<?xml version="1.0" encoding="utf-8"?>
<!-- Generator: Adobe Illustrator 28.1.0, SVG Export Plug-In . SVG Version: 6.00 Build 0)  -->
<svg version="1.1" id="Layer_1" xmlns="http://www.w3.org/2000/svg" xmlns:xlink="http://www.w3.org/1999/xlink" x="0px" y="0px"
	 viewBox="0 0 100.4 90.1" style="enable-background:new 0 0 100.4 90.1;" xml:space="preserve">
<style type="text/css">
	.st0{fill:#FFFFFF;}
</style>
<path class="st0" d="M35.6,62.3c3.2-4,6.3-7.9,9.5-11.9c11.1-14,22.3-27.9,33.4-41.9c2.4-3,5.6-4.1,9.4-3.4c3.6,0.7,5.8,2.9,6.8,6.3
	c0.8,2.9,0,5.6-1.9,8C85.2,29,77.6,38.5,70.1,48C61.2,59,52.3,70.2,43.5,81.2c-4.1,5.2-10.5,5.3-14.9,0.4
	C21.7,73.8,14.8,66,7.9,58.2c-3.5-3.9-3.3-9.4,0.4-12.7c3.7-3.3,9.7-2.9,13,0.8c4.5,5,8.8,10,13.3,15.1C34.9,61.7,35.3,62,35.6,62.3
	z"/>
</svg>
