<svg width="40" height="40" viewBox="0 0 40 40" fill="none" xmlns="http://www.w3.org/2000/svg">
<path d="M9.60468 28.3333H33.3333V8.33333H6.66665V30.6418L9.60468 28.3333ZM10.7576 31.6667L3.33331 37.5V6.66667C3.33331 5.7462 4.07951 5 4.99998 5H35C35.9205 5 36.6666 5.7462 36.6666 6.66667V30C36.6666 30.9205 35.9205 31.6667 35 31.6667H10.7576ZM18.3333 23.3333H21.6666V26.6667H18.3333V23.3333ZM14.2788 14.6891C14.8106 12.0153 17.17 10 20 10C23.2216 10 25.8333 12.6117 25.8333 15.8333C25.8333 19.055 23.2216 21.6667 20 21.6667H18.3333V18.3333H20C21.3806 18.3333 22.5 17.214 22.5 15.8333C22.5 14.4526 21.3806 13.3333 20 13.3333C18.7871 13.3333 17.776 14.197 17.548 15.3429L14.2788 14.6891Z" fill="white"/>
</svg>
