<svg width="55" height="105" viewBox="0 0 55 105" fill="none" xmlns="http://www.w3.org/2000/svg">
<path d="M21.9707 104.499C22.2464 104.515 22.483 104.305 22.4992 104.029L22.7635 99.5371C22.7797 99.2615 22.5694 99.0248 22.2937 99.0086C22.018 98.9924 21.7814 99.2027 21.7652 99.4784L21.5303 103.472L17.5372 103.237C17.2616 103.22 17.0249 103.431 17.0087 103.706C16.9925 103.982 17.2028 104.219 17.4785 104.235L21.9707 104.499ZM54.4999 0C47.8761 0 39.2536 2.85766 30.8782 8.01966C22.4936 13.1873 14.308 20.6934 8.57363 30.0513C2.83629 39.4139 -0.448664 50.6339 0.987629 63.2052C2.4237 75.7745 8.57412 89.6484 21.6264 104.332L22.3738 103.668C9.42603 89.1016 3.3889 75.4129 1.98117 63.0917C0.573656 50.7723 3.78865 39.7736 9.42627 30.5737C15.0668 21.3691 23.1312 13.969 31.4029 8.87096C39.6836 3.76734 48.1236 1 54.4999 1V0Z" fill="white"/>
</svg>
