<svg width="39" height="90" viewBox="0 0 39 90" fill="none" xmlns="http://www.w3.org/2000/svg">
<path d="M1.00003 89.5093C1.00517 89.7854 1.23316 90.0051 1.50925 89.9999L6.00847 89.9161C6.28457 89.9109 6.50422 89.6829 6.49907 89.4068C6.49393 89.1308 6.26594 88.9111 5.98984 88.9163L1.99054 88.9908L1.91602 84.9915C1.91087 84.7154 1.68288 84.4957 1.40679 84.5009C1.13069 84.506 0.911045 84.734 0.916189 85.0101L1.00003 89.5093ZM14.8969 1.48927C24.3137 3.47176 30.552 7.38759 34.0588 12.7125C37.566 18.038 38.3991 24.8608 36.822 32.7773C33.6629 48.6347 20.8695 68.6743 1.13986 89.1531L1.86002 89.8469C21.6304 69.3257 34.5868 49.1153 37.8027 32.9727C39.4131 24.8892 38.5899 17.7745 34.894 12.1625C31.1977 6.54991 24.6861 2.52824 15.1029 0.510725L14.8969 1.48927Z" fill="white"/>
</svg>
