<svg width="30" height="30" viewBox="0 0 30 30" fill="none" xmlns="http://www.w3.org/2000/svg">
<path d="M6.83321 7.14208C4.87243 9.17952 3.66683 11.9489 3.66683 14.9999C3.66683 21.2592 8.74093 26.3333 15.0002 26.3333C16.5313 26.3333 17.9916 26.0297 19.324 25.4793C19.4869 24.4161 19.1295 23.3959 18.9833 23.0389C18.658 22.2462 17.5843 20.8907 15.7919 19.0102C15.3135 18.5073 15.3443 18.1215 15.5153 16.9752L15.535 16.8457C15.6511 16.0604 15.8461 15.5962 18.4883 15.1767C19.8306 14.9639 20.1836 15.5004 20.6729 16.2433C20.727 16.3256 20.7812 16.4064 20.8365 16.4873C21.3014 17.167 21.6457 17.3224 22.1659 17.559C22.399 17.6647 22.6898 17.798 23.0796 18.0194C24.0032 18.5473 24.0032 19.1432 24.0032 20.4501V20.5983C24.0032 21.1531 23.949 21.6401 23.8637 22.0633C25.4095 20.1261 26.3335 17.6709 26.3335 14.9999C26.3335 10.3262 23.5044 6.3132 19.4654 4.58008C18.6817 5.10894 17.6065 5.85854 17.2314 6.37242C17.0396 6.63504 16.7684 7.9756 15.8866 8.08625C15.6555 8.11524 15.3455 8.09493 15.0172 8.07379C14.1367 8.01657 12.9321 7.93934 12.5465 8.9861C12.3017 9.64945 12.2586 11.4504 13.0507 12.3852C13.1775 12.5345 13.202 12.8107 13.1159 13.1207C13.0027 13.5277 12.774 13.7754 12.7028 13.8265C12.5662 13.748 12.2938 13.4318 12.1093 13.2166C11.6647 12.7 11.1101 12.0566 10.3931 11.8574C10.1324 11.7853 9.84585 11.7255 9.56793 11.667C8.79006 11.504 7.90894 11.3185 7.70422 10.8817C7.55476 10.5618 7.55541 10.1212 7.55599 9.65574C7.55599 9.06579 7.55599 8.39866 7.26699 7.75021C7.15531 7.49925 7.00576 7.29957 6.83321 7.14208ZM15.0002 29.1666C7.17613 29.1666 0.833496 22.8239 0.833496 14.9999C0.833496 7.17588 7.17613 0.833252 15.0002 0.833252C22.8241 0.833252 29.1668 7.17588 29.1668 14.9999C29.1668 22.8239 22.8241 29.1666 15.0002 29.1666Z" fill="black"/>
<path d="M6.83321 7.14208C4.87243 9.17952 3.66683 11.9489 3.66683 14.9999C3.66683 21.2592 8.74093 26.3333 15.0002 26.3333C16.5313 26.3333 17.9916 26.0297 19.324 25.4793C19.4869 24.4161 19.1295 23.3959 18.9833 23.0389C18.658 22.2462 17.5843 20.8907 15.7919 19.0102C15.3135 18.5073 15.3443 18.1215 15.5153 16.9752L15.535 16.8457C15.6511 16.0604 15.8461 15.5962 18.4883 15.1767C19.8306 14.9639 20.1836 15.5004 20.6729 16.2433C20.727 16.3256 20.7812 16.4064 20.8365 16.4873C21.3014 17.167 21.6457 17.3224 22.1659 17.559C22.399 17.6647 22.6898 17.798 23.0796 18.0194C24.0032 18.5473 24.0032 19.1432 24.0032 20.4501V20.5983C24.0032 21.1531 23.949 21.6401 23.8637 22.0633C25.4095 20.1261 26.3335 17.6709 26.3335 14.9999C26.3335 10.3262 23.5044 6.3132 19.4654 4.58008C18.6817 5.10894 17.6065 5.85854 17.2314 6.37242C17.0396 6.63504 16.7684 7.9756 15.8866 8.08625C15.6555 8.11524 15.3455 8.09493 15.0172 8.07379C14.1367 8.01657 12.9321 7.93934 12.5465 8.9861C12.3017 9.64945 12.2586 11.4504 13.0507 12.3852C13.1775 12.5345 13.202 12.8107 13.1159 13.1207C13.0027 13.5277 12.774 13.7754 12.7028 13.8265C12.5662 13.748 12.2938 13.4318 12.1093 13.2166C11.6647 12.7 11.1101 12.0566 10.3931 11.8574C10.1324 11.7853 9.84585 11.7255 9.56793 11.667C8.79006 11.504 7.90894 11.3185 7.70422 10.8817C7.55476 10.5618 7.55541 10.1212 7.55599 9.65574C7.55599 9.06579 7.55599 8.39866 7.26699 7.75021C7.15531 7.49925 7.00576 7.29957 6.83321 7.14208ZM15.0002 29.1666C7.17613 29.1666 0.833496 22.8239 0.833496 14.9999C0.833496 7.17588 7.17613 0.833252 15.0002 0.833252C22.8241 0.833252 29.1668 7.17588 29.1668 14.9999C29.1668 22.8239 22.8241 29.1666 15.0002 29.1666Z" fill="url(#paint0_linear_77_1690)"/>
<defs>
<linearGradient id="paint0_linear_77_1690" x1="0.833496" y1="14.9999" x2="29.1668" y2="14.9999" gradientUnits="userSpaceOnUse">
<stop stop-color="#EACB55"/>
<stop offset="1" stop-color="#A08D3C"/>
</linearGradient>
</defs>
</svg>
