<svg width="40" height="40" viewBox="0 0 40 40" fill="none" xmlns="http://www.w3.org/2000/svg">
<path d="M13.3334 31.6663H5.00004C4.07957 31.6663 3.33337 30.9202 3.33337 29.9997V9.99967C3.33337 9.07921 4.07957 8.33301 5.00004 8.33301H16.0417L14.0973 11.6663H6.66671V28.333H13.3334V31.6663ZM20.625 31.6663L22.5695 28.333H30V11.6663H23.3334V8.33301H31.6667C32.5872 8.33301 33.3334 9.07921 33.3334 9.99967V29.9997C33.3334 30.9202 32.5872 31.6663 31.6667 31.6663H20.625ZM35 14.9997H38.3334V24.9997H35V14.9997ZM20 18.333H25L16.6667 31.6663V21.6663H11.6667L20 8.33301V18.333Z" fill="white"/>
</svg>
