<svg width="40" height="40" viewBox="0 0 40 40" fill="none" xmlns="http://www.w3.org/2000/svg">
<path d="M20.0082 36.6711C10.8034 36.6711 3.34149 29.2093 3.34149 20.0045C3.34149 10.7998 10.8034 3.33789 20.0082 3.33789C29.2129 3.33789 36.6749 10.7998 36.6749 20.0045C36.6749 29.2093 29.2129 36.6711 20.0082 36.6711ZM20.0082 33.3378C27.372 33.3378 33.3415 27.3683 33.3415 20.0045C33.3415 12.6408 27.372 6.67122 20.0082 6.67122C12.6444 6.67122 6.67483 12.6408 6.67483 20.0045C6.67483 27.3683 12.6444 33.3378 20.0082 33.3378ZM14.1748 23.3378H23.3415C23.8017 23.3378 24.1749 22.9648 24.1749 22.5045C24.1749 22.0443 23.8017 21.6711 23.3415 21.6711H16.6749C14.3736 21.6711 12.5082 19.8058 12.5082 17.5045C12.5082 15.2034 14.3736 13.3379 16.6749 13.3379H18.3415V10.0046H21.6749V13.3379H25.8415V16.6711H16.6749C16.2146 16.6711 15.8415 17.0443 15.8415 17.5045C15.8415 17.9648 16.2146 18.3378 16.6749 18.3378H23.3415C25.6427 18.3378 27.5082 20.2033 27.5082 22.5045C27.5082 24.8058 25.6427 26.6711 23.3415 26.6711H21.6749V30.0045H18.3415V26.6711H14.1748V23.3378Z" fill="white"/>
</svg>
