<svg width="40" height="40" viewBox="0 0 40 40" fill="none" xmlns="http://www.w3.org/2000/svg">
<path d="M8.72298 12.8828C11.0884 9.14342 15.2557 6.66634 20.0003 6.66634C24.745 6.66634 28.9123 9.14342 31.2778 12.8828L34.0948 11.1009C31.1442 6.43632 25.9353 3.33301 20.0003 3.33301C14.0655 3.33301 8.85655 6.43632 5.90593 11.1009L8.72298 12.8828ZM20.0003 33.333C15.2557 33.333 11.0884 30.856 8.72298 27.1165L5.90593 28.8985C8.85655 33.563 14.0655 36.6663 20.0003 36.6663C25.9353 36.6663 31.1442 33.563 34.0948 28.8985L31.2778 27.1165C28.9123 30.856 24.745 33.333 20.0003 33.333ZM20 13.333C20.9205 13.333 21.6667 14.0792 21.6667 14.9997C21.6667 15.9201 20.9205 16.6663 20 16.6663C19.0795 16.6663 18.3333 15.9201 18.3333 14.9997C18.3333 14.0792 19.0795 13.333 20 13.333ZM20 19.9997C22.7615 19.9997 25 17.7612 25 14.9997C25 12.2383 22.7615 9.99967 20 9.99967C17.2385 9.99967 15 12.2383 15 14.9997C15 17.7612 17.2385 19.9997 20 19.9997ZM20 24.9997C18.159 24.9997 16.6667 26.492 16.6667 28.333H13.3333C13.3333 24.6512 16.3181 21.6663 20 21.6663C23.6818 21.6663 26.6667 24.6512 26.6667 28.333H23.3333C23.3333 26.492 21.841 24.9997 20 24.9997ZM5 18.333C4.07953 18.333 3.33333 19.0792 3.33333 19.9997C3.33333 20.9202 4.07953 21.6663 5 21.6663C5.92047 21.6663 6.66667 20.9202 6.66667 19.9997C6.66667 19.0792 5.92047 18.333 5 18.333ZM0 19.9997C0 17.2382 2.23858 14.9997 5 14.9997C7.76142 14.9997 10 17.2382 10 19.9997C10 22.7612 7.76142 24.9997 5 24.9997C2.23858 24.9997 0 22.7612 0 19.9997ZM33.3333 19.9997C33.3333 19.0792 34.0795 18.333 35 18.333C35.9205 18.333 36.6667 19.0792 36.6667 19.9997C36.6667 20.9202 35.9205 21.6663 35 21.6663C34.0795 21.6663 33.3333 20.9202 33.3333 19.9997ZM35 14.9997C32.2385 14.9997 30 17.2382 30 19.9997C30 22.7612 32.2385 24.9997 35 24.9997C37.7615 24.9997 40 22.7612 40 19.9997C40 17.2382 37.7615 14.9997 35 14.9997Z" fill="white"/>
</svg>
