<svg width="105" height="47" viewBox="0 0 105 47" fill="none" xmlns="http://www.w3.org/2000/svg">
<path d="M0.706064 41.5955C0.482677 41.7579 0.433187 42.0705 0.595523 42.2939L3.24095 45.9342C3.40329 46.1576 3.71598 46.2071 3.93936 46.0448C4.16275 45.8824 4.21224 45.5697 4.0499 45.3464L1.69841 42.1105L4.93423 39.759C5.15761 39.5967 5.2071 39.284 5.04477 39.0606C4.88243 38.8372 4.56974 38.7878 4.34635 38.9501L0.706064 41.5955ZM104.169 0.125081C99.8949 3.89652 95.6028 9.09912 90.5635 14.5189C85.5049 19.9594 79.6459 25.6763 72.1634 30.5819C57.219 40.3794 35.7232 46.9895 1.07816 41.5061L0.921836 42.4939C35.7768 48.0105 57.531 41.3706 72.7116 31.4181C80.2916 26.4487 86.2138 20.6656 91.2959 15.1998C96.3972 9.71338 100.605 4.60348 104.831 0.874919L104.169 0.125081Z" fill="white"/>
</svg>
