<svg width="105" height="47" viewBox="0 0 105 47" fill="none" xmlns="http://www.w3.org/2000/svg">
<path d="M104.794 41.5955C105.017 41.7579 105.067 42.0705 104.904 42.2939L102.259 45.9342C102.097 46.1576 101.784 46.2071 101.561 46.0448C101.337 45.8824 101.288 45.5697 101.45 45.3464L103.802 42.1105L100.566 39.759C100.342 39.5967 100.293 39.284 100.455 39.0606C100.618 38.8372 100.93 38.7878 101.154 38.9501L104.794 41.5955ZM1.33081 0.125081C5.60511 3.89652 9.89717 9.09912 14.9365 14.5189C19.9951 19.9594 25.8541 25.6763 33.3366 30.5819C48.281 40.3794 69.7768 46.9895 104.422 41.5061L104.578 42.4939C69.7232 48.0105 47.969 41.3706 32.7884 31.4181C25.2084 26.4487 19.2862 20.6656 14.2041 15.1998C9.10283 9.71338 4.89489 4.60348 0.669189 0.874919L1.33081 0.125081Z" fill="white"/>
</svg>
